# xmcd
#
# Track frame offsets:
#	150
#	30808
#	57088
#	82684
#	104632
#	124236
#	150508
#	171787
#	194970
#	216170
#	240522
#
# Disc length: 3593 seconds
#
# Revision: 1
# Processed by: cddbd v1.4PL0 Copyright (c) Steve Scherf et al.
# Submitted via: audiograbber 1.82.00
#
DISCID=8a0e070b
DTITLE=Dana Gillespie - Mirrors Of Love
DYEAR=2002
DGENRE=Blues
TTITLE0=Mirrors of love
TTITLE1=Single day
TTITLE2=Secret arrow of love
TTITLE3=Peace of mind
TTITLE4=Heartache
TTITLE5=A perfect love
TTITLE6=More than a mothers love
TTITLE7=All is one
TTITLE8=Between the two
TTITLE9=Master of the show
TTITLE10=Lead me
EXTD=
EXTT0=
EXTT1=
EXTT2=
EXTT3=
EXTT4=
EXTT5=
EXTT6=
EXTT7=
EXTT8=
EXTT9=
EXTT10=
PLAYORDER=
